<svg xmlns="http://www.w3.org/2000/svg" width="376" height="129" viewBox="0 0 376 129"><g transform="translate(-1)"><path fill="#A4C7C7" d="M310.191 129.002c-15.515 0-28.506-11.13-30.891-26.465l-.134-.862.86-.138c1.709-.273 3.129-.604 4.467-1.039 13.877-4.512 22.299-18.249 20.025-32.666l1.731-.273c2.408 15.274-6.515 29.83-21.216 34.607a29.859 29.859 0 01-3.858.953c2.591 14.033 14.658 24.129 29.014 24.129 14.354 0 26.422-10.096 29.013-24.129a29.72 29.72 0 01-3.857-.953 31.166 31.166 0 01-21.249-34.414l1.734.262a29.413 29.413 0 0020.057 32.484c1.337.436 2.757.766 4.466 1.039l.86.138-.134.862c-2.383 15.335-15.374 26.465-30.888 26.465z"/><g transform="translate(305 35)"><defs><filter id="a" filterUnits="userSpaceOnUse" x="9.859" y="9.121" width="61.479" height="59.557"><feColorMatrix values="1 0 0 0 0 0 1 0 0 0 0 0 1 0 0 0 0 0 1 0"/></filter></defs><mask maskUnits="userSpaceOnUse" x="9.859" y="9.121" width="61.479" height="59.557" id="b"><g filter="url(#a)"><path fill="#FFF" d="M0 0h71.32v78H0z"/></g></mask><g mask="url(#b)"><path fill="#A4C7C7" d="M40.163 68.678c-1.679 0-3.378-.134-5.088-.41l-.86-.139.134-.861c.262-1.682.389-3.175.389-4.563 0-14.593-10.463-26.849-24.878-29.142l.274-1.732C25.405 34.26 36.49 47.244 36.49 62.704c0 1.231-.093 2.535-.282 3.959 14.15 1.876 27.473-6.479 31.907-20.132 4.435-13.654-1.438-28.25-13.979-35.05a29.517 29.517 0 01-2.103 3.375c-9.088 12.505-25.688 16.492-39.466 9.48l.795-1.562c13.01 6.619 28.676 2.854 37.253-8.949.829-1.142 1.604-2.426 2.369-3.926l.396-.778.779.395c13.845 7.006 20.414 22.802 15.622 37.557-4.256 13.107-16.253 21.605-29.618 21.605z"/></g></g><g transform="translate(300)"><defs><filter id="c" filterUnits="userSpaceOnUse" x="8.957" y=".117" width="54.08" height="58.836"><feColorMatrix values="1 0 0 0 0 0 1 0 0 0 0 0 1 0 0 0 0 0 1 0"/></filter></defs><mask maskUnits="userSpaceOnUse" x="8.957" y=".117" width="54.08" height="58.836" id="d"><g filter="url(#c)"><path fill="#FFF" d="M0 .168h73V69H0z"/></g></mask><g mask="url(#d)"><path fill="#A4C7C7" d="M18.746 58.953l-1.562-.797c7.028-13.771 22.803-20.302 37.506-15.525 1.167.38 2.378.871 3.68 1.494 6.153-12.874 2.325-28.133-9.29-36.571C37.474-.882 21.778.196 11.432 10.024a29.694 29.694 0 012.559 3.036c9.087 12.508 7.752 29.527-3.176 40.467l-1.24-1.239c10.313-10.326 11.574-26.39 2.997-38.197-.817-1.126-1.771-2.227-2.999-3.464l-.614-.618.611-.619C20.516-1.615 37.565-2.982 50.109 6.135c12.552 9.118 16.521 25.757 9.437 39.562l-.396.774-.777-.392c-1.55-.781-2.892-1.347-4.225-1.781-13.878-4.505-28.766 1.656-35.402 14.655z"/></g></g><g transform="translate(248)"><defs><filter id="e" filterUnits="userSpaceOnUse" x="9.347" y=".118" width="54.081" height="58.835"><feColorMatrix values="1 0 0 0 0 0 1 0 0 0 0 0 1 0 0 0 0 0 1 0"/></filter></defs><mask maskUnits="userSpaceOnUse" x="9.347" y=".118" width="54.081" height="58.835" id="f"><g filter="url(#e)"><path fill="#FFF" d="M0 .168h73V69H0z"/></g></mask><g mask="url(#f)"><path fill="#A4C7C7" d="M53.637 58.953c-6.638-13.003-21.527-19.166-35.4-14.654-1.32.429-2.664.995-4.229 1.781l-.777.391-.396-.774C5.755 31.89 9.725 15.252 22.27 6.135 34.816-2.982 51.868-1.614 62.812 9.39l.616.619-.616.618c-1.195 1.201-2.179 2.334-3.003 3.464-8.574 11.805-7.312 27.869 3.002 38.196l-1.239 1.239c-10.929-10.94-12.265-27.959-3.179-40.467a29.725 29.725 0 012.56-3.037C50.605.194 34.91-.884 23.301 7.553S7.861 31.25 14.012 44.125a29.554 29.554 0 013.684-1.494c14.697-4.778 30.473 1.75 37.505 15.525l-1.564.797z"/></g></g><path fill="#A4C7C7" d="M275.227 103.677c-13.367 0-25.369-8.499-29.631-21.604-4.793-14.755 1.777-30.549 15.622-37.558l.777-.394.397.776c.771 1.505 1.547 2.79 2.371 3.929 8.573 11.803 24.243 15.567 37.256 8.948l.795 1.562c-13.783 7.016-30.385 3.025-39.469-9.481a30.453 30.453 0 01-2.102-3.375c-12.544 6.802-18.416 21.399-13.98 35.051 4.437 13.646 17.762 21.996 31.91 20.132a29.523 29.523 0 01-.285-3.959c0-15.46 11.086-28.444 26.359-30.874l.275 1.732c-14.418 2.293-24.883 14.549-24.883 29.142 0 1.392.125 2.842.393 4.563l.134.861-.86.139c-1.704.276-3.404.41-5.079.41z"/><path fill="none" stroke="#94BEBF" stroke-width="3.831" d="M314.816 67.727c.008-.059.02-.121.026-.18"/><linearGradient id="g" gradientUnits="userSpaceOnUse" x1="305.45" y1="-1644.548" x2="304.039" y2="-1644.548" gradientTransform="matrix(9.3086 0 0 -.4023 -2526.558 -594.458)"><stop offset="0" stop-color="#8cd024"/><stop offset=".25" stop-color="#8cd024"/><stop offset=".375" stop-color="#8cd024"/><stop offset=".379" stop-color="#8acf26"/><stop offset=".383" stop-color="#88cf27"/><stop offset=".387" stop-color="#87ce29"/><stop offset=".391" stop-color="#85ce2b"/><stop offset=".395" stop-color="#83cd2d"/><stop offset=".398" stop-color="#82cd2e"/><stop offset=".402" stop-color="#80cc30"/><stop offset=".406" stop-color="#7ecc31"/><stop offset=".41" stop-color="#7ccb33"/><stop offset=".414" stop-color="#7acb34"/><stop offset=".418" stop-color="#78ca36"/><stop offset=".422" stop-color="#77ca38"/><stop offset=".426" stop-color="#75c939"/><stop offset=".43" stop-color="#73c93b"/><stop offset=".434" stop-color="#71c83c"/><stop offset=".438" stop-color="#6fc83e"/><stop offset=".441" stop-color="#6ec840"/><stop offset=".445" stop-color="#6cc741"/><stop offset=".449" stop-color="#6ac743"/><stop offset=".453" stop-color="#69c644"/><stop offset=".457" stop-color="#67c646"/><stop offset=".461" stop-color="#65c547"/><stop offset=".465" stop-color="#63c549"/><stop offset=".469" stop-color="#61c44a"/><stop offset=".473" stop-color="#5fc44c"/><stop offset=".477" stop-color="#5dc34d"/><stop offset=".48" stop-color="#5cc34f"/><stop offset=".484" stop-color="#5ac251"/><stop offset=".488" stop-color="#58c252"/><stop offset=".492" stop-color="#57c153"/><stop offset=".496" stop-color="#55c155"/><stop offset=".5" stop-color="#53c056"/><stop offset=".504" stop-color="#51c058"/><stop offset=".508" stop-color="#4fbf59"/><stop offset=".512" stop-color="#4dbf5b"/><stop offset=".516" stop-color="#4bbe5c"/><stop offset=".519" stop-color="#4abe5d"/><stop offset=".523" stop-color="#48bd5f"/><stop offset=".527" stop-color="#46bd60"/><stop offset=".531" stop-color="#44bc61"/><stop offset=".535" stop-color="#43bc63"/><stop offset=".539" stop-color="#41bb64"/><stop offset=".543" stop-color="#3fbb66"/><stop offset=".547" stop-color="#3eba67"/><stop offset=".551" stop-color="#3cba68"/><stop offset=".555" stop-color="#3ab96a"/><stop offset=".559" stop-color="#38b96b"/><stop offset=".563" stop-color="#36b86c"/><stop offset=".566" stop-color="#34b86e"/><stop offset=".57" stop-color="#33b76f"/><stop offset=".574" stop-color="#31b770"/><stop offset=".578" stop-color="#2fb671"/><stop offset=".582" stop-color="#2db673"/><stop offset=".586" stop-color="#2cb574"/><stop offset=".59" stop-color="#2ab575"/><stop offset=".594" stop-color="#28b477"/><stop offset=".598" stop-color="#27b478"/><stop offset=".602" stop-color="#26b478"/><stop offset=".609" stop-color="#26b478"/><stop offset=".625" stop-color="#26b478"/><stop offset=".75" stop-color="#26b478"/><stop offset="1" stop-color="#26b478"/></linearGradient><path fill="none" stroke="url(#g)" stroke-width="3.831" d="M314.844 67.547c-1.52-.242-3.065-.402-4.651-.402-1.591 0-3.134.16-4.656.402"/><linearGradient id="h" gradientUnits="userSpaceOnUse" x1="361.222" y1="-73.666" x2="360.866" y2="-74.76" gradientTransform="matrix(2.875 0 0 -8.8516 -722.281 -594.449)"><stop offset="0" stop-color="#0c8562"/><stop offset=".25" stop-color="#0c8562"/><stop offset=".281" stop-color="#0c8562"/><stop offset=".289" stop-color="#0d8562"/><stop offset=".293" stop-color="#0e8561"/><stop offset=".297" stop-color="#0f8661"/><stop offset=".301" stop-color="#108760"/><stop offset=".305" stop-color="#128760"/><stop offset=".309" stop-color="#13885f"/><stop offset=".313" stop-color="#14885f"/><stop offset=".316" stop-color="#15895f"/><stop offset=".32" stop-color="#168a5e"/><stop offset=".324" stop-color="#178a5e"/><stop offset=".328" stop-color="#198b5d"/><stop offset=".332" stop-color="#1a8c5d"/><stop offset=".336" stop-color="#1b8c5c"/><stop offset=".34" stop-color="#1c8d5c"/><stop offset=".344" stop-color="#1e8e5b"/><stop offset=".348" stop-color="#1f8e5b"/><stop offset=".352" stop-color="#208f5a"/><stop offset=".355" stop-color="#21905a"/><stop offset=".359" stop-color="#229059"/><stop offset=".363" stop-color="#249159"/><stop offset=".367" stop-color="#259259"/><stop offset=".371" stop-color="#269258"/><stop offset=".375" stop-color="#279358"/><stop offset=".379" stop-color="#299457"/><stop offset=".383" stop-color="#2a9456"/><stop offset=".387" stop-color="#2b9556"/><stop offset=".391" stop-color="#2c9655"/><stop offset=".395" stop-color="#2e9755"/><stop offset=".398" stop-color="#2f9754"/><stop offset=".402" stop-color="#309854"/><stop offset=".406" stop-color="#319953"/><stop offset=".41" stop-color="#339953"/><stop offset=".414" stop-color="#349a52"/><stop offset=".418" stop-color="#359b52"/><stop offset=".422" stop-color="#369c51"/><stop offset=".426" stop-color="#389c51"/><stop offset=".43" stop-color="#399d50"/><stop offset=".434" stop-color="#3a9e4f"/><stop offset=".438" stop-color="#3c9f4f"/><stop offset=".441" stop-color="#3d9f4e"/><stop offset=".445" stop-color="#3ea04e"/><stop offset=".449" stop-color="#3fa14d"/><stop offset=".453" stop-color="#41a24c"/><stop offset=".457" stop-color="#42a24c"/><stop offset=".461" stop-color="#43a34b"/><stop offset=".465" stop-color="#45a44b"/><stop offset=".469" stop-color="#46a54a"/><stop offset=".473" stop-color="#47a549"/><stop offset=".477" stop-color="#49a649"/><stop offset=".48" stop-color="#4aa748"/><stop offset=".484" stop-color="#4ba847"/><stop offset=".488" stop-color="#4da947"/><stop offset=".492" stop-color="#4ea946"/><stop offset=".496" stop-color="#4faa46"/><stop offset=".5" stop-color="#51ab45"/><stop offset=".504" stop-color="#52ac44"/><stop offset=".508" stop-color="#53ad44"/><stop offset=".512" stop-color="#55ad43"/><stop offset=".516" stop-color="#56ae42"/><stop offset=".519" stop-color="#57af42"/><stop offset=".523" stop-color="#59b041"/><stop offset=".527" stop-color="#5ab140"/><stop offset=".531" stop-color="#5bb13f"/><stop offset=".535" stop-color="#5db23f"/><stop offset=".539" stop-color="#5eb33e"/><stop offset=".543" stop-color="#60b43d"/><stop offset=".547" stop-color="#61b53d"/><stop offset=".551" stop-color="#62b63c"/><stop offset=".555" stop-color="#64b63b"/><stop offset=".559" stop-color="#65b73a"/><stop offset=".563" stop-color="#66b83a"/><stop offset=".566" stop-color="#68b939"/><stop offset=".57" stop-color="#69ba38"/><stop offset=".574" stop-color="#6bbb37"/><stop offset=".578" stop-color="#6cbc37"/><stop offset=".582" stop-color="#6dbc36"/><stop offset=".586" stop-color="#6fbd35"/><stop offset=".59" stop-color="#70be34"/><stop offset=".594" stop-color="#72bf33"/><stop offset=".598" stop-color="#73c033"/><stop offset=".602" stop-color="#75c132"/><stop offset=".606" stop-color="#76c231"/><stop offset=".609" stop-color="#77c330"/><stop offset=".613" stop-color="#79c42f"/><stop offset=".617" stop-color="#7ac42f"/><stop offset=".621" stop-color="#7cc52e"/><stop offset=".625" stop-color="#7dc62d"/><stop offset=".629" stop-color="#7fc72c"/><stop offset=".633" stop-color="#80c82b"/><stop offset=".637" stop-color="#82c92a"/><stop offset=".641" stop-color="#83ca2a"/><stop offset=".644" stop-color="#84cb29"/><stop offset=".648" stop-color="#86cc28"/><stop offset=".652" stop-color="#87cd27"/><stop offset=".656" stop-color="#89ce26"/><stop offset=".66" stop-color="#8acf25"/><stop offset=".664" stop-color="#8cd024"/><stop offset=".672" stop-color="#8cd024"/><stop offset=".688" stop-color="#8cd024"/><stop offset=".75" stop-color="#8cd024"/><stop offset="1" stop-color="#8cd024"/></linearGradient><path fill="none" stroke="url(#h)" stroke-width="3.831" d="M317.719 58.695c-.699 1.371-1.328 2.793-1.819 4.301-.492 1.512-.816 3.031-1.056 4.551"/><path fill="none" stroke="#8CD024" stroke-width="3.831" d="M314.844 67.547c-2.219 14.055 6.004 28.035 19.974 32.574 1.477.48 2.965.797 4.452 1.039.23-1.488.384-3 .384-4.555-.002-14.683-10.756-26.824-24.81-29.058z"/><linearGradient id="i" gradientUnits="userSpaceOnUse" x1="311.473" y1="-120.685" x2="309.966" y2="-120.685" gradientTransform="matrix(7.5273 0 0 -5.4727 -2024.93 -603.3)"><stop offset="0" stop-color="#0c8562"/><stop offset=".25" stop-color="#0c8562"/><stop offset=".254" stop-color="#0c8562"/><stop offset=".258" stop-color="#0c8563"/><stop offset=".262" stop-color="#0c8563"/><stop offset=".266" stop-color="#0c8664"/><stop offset=".27" stop-color="#0c8664"/><stop offset=".273" stop-color="#0c8665"/><stop offset=".277" stop-color="#0c8665"/><stop offset=".281" stop-color="#0d8666"/><stop offset=".285" stop-color="#0d8766"/><stop offset=".289" stop-color="#0d8766"/><stop offset=".293" stop-color="#0d8767"/><stop offset=".297" stop-color="#0d8767"/><stop offset=".301" stop-color="#0d8868"/><stop offset=".305" stop-color="#0d8868"/><stop offset=".309" stop-color="#0d8869"/><stop offset=".313" stop-color="#0d8869"/><stop offset=".316" stop-color="#0d886a"/><stop offset=".32" stop-color="#0d896a"/><stop offset=".324" stop-color="#0d896b"/><stop offset=".328" stop-color="#0d896b"/><stop offset=".332" stop-color="#0d896c"/><stop offset=".336" stop-color="#0d8a6c"/><stop offset=".34" stop-color="#0d8a6d"/><stop offset=".344" stop-color="#0d8a6d"/><stop offset=".348" stop-color="#0d8a6e"/><stop offset=".352" stop-color="#0d8b6e"/><stop offset=".355" stop-color="#0d8b6f"/><stop offset=".359" stop-color="#0d8b6f"/><stop offset=".363" stop-color="#0d8b70"/><stop offset=".367" stop-color="#0d8b70"/><stop offset=".371" stop-color="#0d8c70"/><stop offset=".375" stop-color="#0d8c71"/><stop offset=".379" stop-color="#0d8c71"/><stop offset=".383" stop-color="#0d8c72"/><stop offset=".387" stop-color="#0d8d72"/><stop offset=".391" stop-color="#0d8d73"/><stop offset=".395" stop-color="#0d8d73"/><stop offset=".398" stop-color="#0d8d74"/><stop offset=".402" stop-color="#0d8e74"/><stop offset=".406" stop-color="#0d8e75"/><stop offset=".41" stop-color="#0d8e75"/><stop offset=".414" stop-color="#0d8e76"/><stop offset=".418" stop-color="#0d8f76"/><stop offset=".422" stop-color="#0d8f77"/><stop offset=".426" stop-color="#0d8f77"/><stop offset=".43" stop-color="#0d8f78"/><stop offset=".434" stop-color="#0d9078"/><stop offset=".438" stop-color="#0d9079"/><stop offset=".441" stop-color="#0d9079"/><stop offset=".445" stop-color="#0d907a"/><stop offset=".449" stop-color="#0d907a"/><stop offset=".453" stop-color="#0d917b"/><stop offset=".457" stop-color="#0d917b"/><stop offset=".461" stop-color="#0d917c"/><stop offset=".465" stop-color="#0d917c"/><stop offset=".469" stop-color="#0d927d"/><stop offset=".473" stop-color="#0d927d"/><stop offset=".477" stop-color="#0d927e"/><stop offset=".48" stop-color="#0d927f"/><stop offset=".484" stop-color="#0d937f"/><stop offset=".488" stop-color="#0d9380"/><stop offset=".492" stop-color="#0d9380"/><stop offset=".496" stop-color="#0d9381"/><stop offset=".5" stop-color="#0d9481"/><stop offset=".504" stop-color="#0d9482"/><stop offset=".508" stop-color="#0d9482"/><stop offset=".512" stop-color="#0d9483"/><stop offset=".516" stop-color="#0d9583"/><stop offset=".519" stop-color="#0d9584"/><stop offset=".523" stop-color="#0d9584"/><stop offset=".527" stop-color="#0d9585"/><stop offset=".531" stop-color="#0d9685"/><stop offset=".535" stop-color="#0d9686"/><stop offset=".539" stop-color="#0d9686"/><stop offset=".543" stop-color="#0d9687"/><stop offset=".547" stop-color="#0d9787"/><stop offset=".551" stop-color="#0e9788"/><stop offset=".555" stop-color="#0e9788"/><stop offset=".559" stop-color="#0e9789"/><stop offset=".563" stop-color="#0e988a"/><stop offset=".566" stop-color="#0e988a"/><stop offset=".57" stop-color="#0e988b"/><stop offset=".574" stop-color="#0e988b"/><stop offset=".578" stop-color="#0e998c"/><stop offset=".582" stop-color="#0e998c"/><stop offset=".586" stop-color="#0e998d"/><stop offset=".59" stop-color="#0e998d"/><stop offset=".594" stop-color="#0e9a8e"/><stop offset=".598" stop-color="#0e9a8e"/><stop offset=".602" stop-color="#0e9a8f"/><stop offset=".606" stop-color="#0e9a8f"/><stop offset=".609" stop-color="#0e9b90"/><stop offset=".613" stop-color="#0e9b91"/><stop offset=".617" stop-color="#0e9b91"/><stop offset=".621" stop-color="#0e9b92"/><stop offset=".625" stop-color="#0e9c92"/><stop offset=".629" stop-color="#0e9c93"/><stop offset=".633" stop-color="#0e9c93"/><stop offset=".637" stop-color="#0e9c94"/><stop offset=".641" stop-color="#0e9d94"/><stop offset=".644" stop-color="#0e9d95"/><stop offset=".648" stop-color="#0e9d95"/><stop offset=".652" stop-color="#0e9d96"/><stop offset=".656" stop-color="#0e9e97"/><stop offset=".66" stop-color="#0e9e97"/><stop offset=".664" stop-color="#0e9e98"/><stop offset=".668" stop-color="#0e9e98"/><stop offset=".672" stop-color="#0e9f99"/><stop offset=".676" stop-color="#0e9f99"/><stop offset=".68" stop-color="#0e9f9a"/><stop offset=".684" stop-color="#0e9f9b"/><stop offset=".688" stop-color="#0ea09b"/><stop offset=".691" stop-color="#0ea09b"/><stop offset=".695" stop-color="#0ea09c"/><stop offset=".703" stop-color="#0ea09c"/><stop offset=".719" stop-color="#0ea09c"/><stop offset=".75" stop-color="#0ea09c"/><stop offset="1" stop-color="#0ea09c"/></linearGradient><path fill="none" stroke="url(#i)" stroke-width="3.831" d="M310.191 53.223c1.086 1.09 2.246 2.129 3.526 3.062 1.285.934 2.629 1.711 4 2.41"/><g transform="translate(296 20)"><defs><filter id="j" filterUnits="userSpaceOnUse" x="19.14" y="20.716" width="44.679" height="23.088"><feColorMatrix values="1 0 0 0 0 0 1 0 0 0 0 0 1 0 0 0 0 0 1 0"/></filter></defs><mask maskUnits="userSpaceOnUse" x="19.14" y="20.716" width="44.679" height="23.088" id="k"><g filter="url(#j)"><path fill="#FFF" d="M0 0h80.32v64H0z"/></g></mask><path mask="url(#k)" fill="none" stroke="#0C8562" stroke-width="3.831" d="M21.719 38.695c12.685 6.454 28.521 2.953 37.152-8.926.914-1.258 1.676-2.574 2.363-3.914-1.345-.68-2.734-1.297-4.211-1.777-13.964-4.535-28.835 1.942-35.304 14.617z"/></g><linearGradient id="l" gradientUnits="userSpaceOnUse" x1="311.356" y1="-120.568" x2="309.732" y2="-120.568" gradientTransform="matrix(7.5312 0 0 -5.4727 -2033.552 -603.3)"><stop offset="0" stop-color="#0ea09c"/><stop offset=".125" stop-color="#0ea09c"/><stop offset=".188" stop-color="#0ea09c"/><stop offset=".203" stop-color="#0ea09c"/><stop offset=".211" stop-color="#0fa09c"/><stop offset=".219" stop-color="#0fa19c"/><stop offset=".227" stop-color="#10a19d"/><stop offset=".234" stop-color="#11a29d"/><stop offset=".242" stop-color="#11a29d"/><stop offset=".25" stop-color="#12a29d"/><stop offset=".258" stop-color="#13a39e"/><stop offset=".266" stop-color="#14a39e"/><stop offset=".273" stop-color="#14a49e"/><stop offset=".281" stop-color="#15a49f"/><stop offset=".289" stop-color="#16a59f"/><stop offset=".297" stop-color="#17a59f"/><stop offset=".305" stop-color="#17a6a0"/><stop offset=".313" stop-color="#18a6a0"/><stop offset=".32" stop-color="#19a7a0"/><stop offset=".328" stop-color="#1aa7a1"/><stop offset=".336" stop-color="#1aa8a1"/><stop offset=".344" stop-color="#1ba8a1"/><stop offset=".352" stop-color="#1ca9a2"/><stop offset=".359" stop-color="#1da9a2"/><stop offset=".367" stop-color="#1daaa2"/><stop offset=".375" stop-color="#1eaaa3"/><stop offset=".383" stop-color="#1faba3"/><stop offset=".391" stop-color="#20aba3"/><stop offset=".398" stop-color="#21aca4"/><stop offset=".406" stop-color="#21aca4"/><stop offset=".414" stop-color="#22ada4"/><stop offset=".422" stop-color="#23ada5"/><stop offset=".43" stop-color="#24aea5"/><stop offset=".438" stop-color="#24aea6"/><stop offset=".445" stop-color="#25afa6"/><stop offset=".453" stop-color="#26afa6"/><stop offset=".461" stop-color="#27b0a7"/><stop offset=".469" stop-color="#28b0a7"/><stop offset=".477" stop-color="#28b1a7"/><stop offset=".484" stop-color="#29b1a8"/><stop offset=".492" stop-color="#2ab2a8"/><stop offset=".5" stop-color="#2bb2a8"/><stop offset=".508" stop-color="#2cb3a9"/><stop offset=".516" stop-color="#2cb3a9"/><stop offset=".523" stop-color="#2db4a9"/><stop offset=".531" stop-color="#2eb4aa"/><stop offset=".539" stop-color="#2fb5aa"/><stop offset=".547" stop-color="#30b5ab"/><stop offset=".555" stop-color="#30b6ab"/><stop offset=".563" stop-color="#31b6ab"/><stop offset=".57" stop-color="#32b7ac"/><stop offset=".578" stop-color="#33b8ac"/><stop offset=".586" stop-color="#34b8ac"/><stop offset=".594" stop-color="#34b9ad"/><stop offset=".602" stop-color="#35b9ad"/><stop offset=".609" stop-color="#36baae"/><stop offset=".617" stop-color="#37baae"/><stop offset=".625" stop-color="#38bbae"/><stop offset=".633" stop-color="#38bbaf"/><stop offset=".641" stop-color="#39bcaf"/><stop offset=".656" stop-color="#3abcaf"/><stop offset=".688" stop-color="#3bbdb0"/><stop offset=".75" stop-color="#3bbdb0"/><stop offset="1" stop-color="#3bbdb0"/></linearGradient><path fill="none" stroke="url(#l)" stroke-width="3.831" d="M302.66 58.695c1.371-.699 2.719-1.477 4.004-2.41 1.285-.933 2.441-1.973 3.527-3.062"/><g transform="translate(279)"><defs><filter id="m" filterUnits="userSpaceOnUse" x="20.669" y="8.961" width="21.044" height="46.973"><feColorMatrix values="1 0 0 0 0 0 1 0 0 0 0 0 1 0 0 0 0 0 1 0"/></filter></defs><mask maskUnits="userSpaceOnUse" x="20.669" y="8.961" width="21.044" height="46.973" id="n"><g filter="url(#m)"><path fill="#FFF" d="M0 .168h62V75H0z"/></g></mask><path mask="url(#n)" fill="none" stroke="#0FA09C" stroke-width="3.831" d="M31.191 53.223c10.055-10.066 11.62-26.211 2.991-38.09-.914-1.258-1.93-2.391-2.991-3.457-1.062 1.066-2.078 2.199-2.992 3.457-8.629 11.879-7.062 28.023 2.992 38.09z"/></g><linearGradient id="o" gradientUnits="userSpaceOnUse" x1="361.59" y1="-73.571" x2="361.59" y2="-75.003" gradientTransform="matrix(2.875 0 0 -8.8516 -734.465 -594.449)"><stop offset="0" stop-color="#3bbdb0"/><stop offset=".25" stop-color="#3bbdb0"/><stop offset=".313" stop-color="#3bbdb0"/><stop offset=".344" stop-color="#3bbdb0"/><stop offset=".348" stop-color="#3bbdaf"/><stop offset=".352" stop-color="#3abcae"/><stop offset=".355" stop-color="#3abcae"/><stop offset=".359" stop-color="#3abcad"/><stop offset=".363" stop-color="#3abcac"/><stop offset=".367" stop-color="#39bcac"/><stop offset=".371" stop-color="#39bcab"/><stop offset=".375" stop-color="#39bcaa"/><stop offset=".379" stop-color="#39bcaa"/><stop offset=".383" stop-color="#38bca9"/><stop offset=".387" stop-color="#38bca8"/><stop offset=".391" stop-color="#38bba7"/><stop offset=".395" stop-color="#37bba7"/><stop offset=".398" stop-color="#37bba6"/><stop offset=".402" stop-color="#37bba5"/><stop offset=".406" stop-color="#37bba4"/><stop offset=".41" stop-color="#36bba4"/><stop offset=".414" stop-color="#36bba3"/><stop offset=".418" stop-color="#36bba2"/><stop offset=".422" stop-color="#35baa1"/><stop offset=".426" stop-color="#35baa1"/><stop offset=".43" stop-color="#35baa0"/><stop offset=".434" stop-color="#35ba9f"/><stop offset=".438" stop-color="#34ba9e"/><stop offset=".441" stop-color="#34ba9e"/><stop offset=".445" stop-color="#34ba9d"/><stop offset=".449" stop-color="#34ba9c"/><stop offset=".453" stop-color="#34ba9b"/><stop offset=".457" stop-color="#33ba9b"/><stop offset=".461" stop-color="#33b99a"/><stop offset=".465" stop-color="#33b99a"/><stop offset=".469" stop-color="#33b999"/><stop offset=".473" stop-color="#32b998"/><stop offset=".477" stop-color="#32b998"/><stop offset=".48" stop-color="#32b997"/><stop offset=".484" stop-color="#32b996"/><stop offset=".488" stop-color="#31b995"/><stop offset=".492" stop-color="#31b895"/><stop offset=".496" stop-color="#31b894"/><stop offset=".5" stop-color="#30b893"/><stop offset=".504" stop-color="#30b892"/><stop offset=".508" stop-color="#30b892"/><stop offset=".512" stop-color="#30b891"/><stop offset=".516" stop-color="#2fb890"/><stop offset=".519" stop-color="#2fb890"/><stop offset=".523" stop-color="#2fb88f"/><stop offset=".527" stop-color="#2fb78e"/><stop offset=".531" stop-color="#2eb78e"/><stop offset=".535" stop-color="#2eb78d"/><stop offset=".539" stop-color="#2eb78c"/><stop offset=".543" stop-color="#2eb78b"/><stop offset=".547" stop-color="#2db78b"/><stop offset=".551" stop-color="#2db78a"/><stop offset=".555" stop-color="#2db789"/><stop offset=".559" stop-color="#2db689"/><stop offset=".563" stop-color="#2cb688"/><stop offset=".566" stop-color="#2cb687"/><stop offset=".57" stop-color="#2cb686"/><stop offset=".574" stop-color="#2bb686"/><stop offset=".578" stop-color="#2bb685"/><stop offset=".582" stop-color="#2bb684"/><stop offset=".586" stop-color="#2bb684"/><stop offset=".59" stop-color="#2ab683"/><stop offset=".594" stop-color="#2ab583"/><stop offset=".598" stop-color="#2ab582"/><stop offset=".602" stop-color="#29b581"/><stop offset=".606" stop-color="#29b580"/><stop offset=".609" stop-color="#29b580"/><stop offset=".613" stop-color="#29b57f"/><stop offset=".617" stop-color="#29b57e"/><stop offset=".621" stop-color="#29b57e"/><stop offset=".625" stop-color="#28b57d"/><stop offset=".629" stop-color="#28b57c"/><stop offset=".633" stop-color="#28b47b"/><stop offset=".637" stop-color="#27b47b"/><stop offset=".641" stop-color="#27b47a"/><stop offset=".644" stop-color="#27b479"/><stop offset=".648" stop-color="#27b479"/><stop offset=".656" stop-color="#26b479"/><stop offset=".688" stop-color="#26b478"/><stop offset=".75" stop-color="#26b478"/><stop offset="1" stop-color="#26b478"/></linearGradient><path fill="none" stroke="url(#o)" stroke-width="3.831" d="M305.535 67.547c-.238-1.52-.562-3.043-1.055-4.551-.488-1.512-1.121-2.93-1.82-4.301"/><path fill="none" stroke="#26B478" stroke-width="3.831" d="M305.535 67.547c-14.055 2.234-24.809 14.375-24.809 29.059 0 1.556.155 3.066.387 4.556 1.488-.242 2.977-.56 4.449-1.039 13.969-4.541 22.196-18.521 19.973-32.576z"/><path fill="none" stroke="#3BBDB0" stroke-width="3.831" d="M302.66 58.695c-6.469-12.676-21.34-19.156-35.305-14.617-1.474.48-2.867 1.098-4.211 1.777.69 1.34 1.453 2.656 2.367 3.914 8.63 11.879 24.466 15.379 37.149 8.926z"/><path fill="#0FA09C" d="M144.383 43.285c0 .602-.07 1.059-.207 1.383-2.117.273-3.566.805-4.348 1.586-.508.508-.77 1.566-.793 3.176a523.239 523.239 0 01-.105 5.246l-.207 20.434v3.07c0 1.129.035 2.211.105 3.246a20.18 20.18 0 00.344 2.727c.16.781.355 1.289.586 1.517.828.828 2.258 1.383 4.281 1.66.137.366.207.823.207 1.379 0 .229-.012.483-.035.758a1.926 1.926 0 01-.172.691h-2.211c-1.059 0-2.242-.035-3.555-.105a70.699 70.699 0 00-3.418-.102c-1.055 0-2.184.034-3.379.102-1.199.07-2.301.105-3.316.105h-2.344a1.805 1.805 0 01-.172-.691 7.701 7.701 0 01-.039-.758c0-.556.07-1.013.211-1.379 2.07-.277 3.52-.832 4.348-1.66.23-.228.426-.733.586-1.517.16-.784.289-1.69.379-2.727.094-1.035.164-2.117.207-3.246.047-1.129.07-2.147.07-3.07l.137-20.503c0-1.887-.031-3.621-.102-5.211-.07-1.586-.355-2.633-.863-3.141-.781-.781-2.211-1.312-4.281-1.586-.137-.324-.207-.781-.207-1.383 0-.551.07-1.012.207-1.379h2.211c1.055 0 2.219.035 3.484.102 1.266.07 2.383.105 3.348.105 1.059 0 2.152-.035 3.281-.105a54.99 54.99 0 013.207-.102h2.348c.136.366.207.827.207 1.378m34.445 10.492c0-2.988-.816-5.129-2.449-6.418-1.637-1.289-3.945-1.934-6.938-1.934-.875 0-1.82.035-2.832.105-1.012.066-1.77.148-2.277.242-.047 1.012-.094 2-.137 2.965-.047.828-.07 1.68-.07 2.555v2.277l-.066 9.184h3.449c1.105 0 2.312-.152 3.625-.449a11.623 11.623 0 003.656-1.52 9.772 9.772 0 002.867-2.797c.782-1.147 1.172-2.553 1.172-4.21zm.828 22.09c0-1.562-.309-2.91-.93-4.039a8.3 8.3 0 00-2.488-2.793c-1.035-.738-2.219-1.266-3.555-1.59a17.683 17.683 0 00-4.141-.48l-4.555.066-.07 7.25v2.07c0 1.104.023 2.276.07 3.52.043 1.242.113 2.406.207 3.484.09 1.082.25 1.715.484 1.897.414.414 1.137.703 2.172.863 1.035.163 2.012.241 2.934.241.414 0 1.023-.034 1.828-.102.805-.07 1.395-.152 1.762-.242 1.84-.828 3.348-2.152 4.52-3.969 1.176-1.816 1.762-3.875 1.762-6.176zm8.352-.137c0 2.391-.562 4.508-1.691 6.352-1.129 1.84-2.613 3.391-4.449 4.656-1.844 1.27-3.914 2.223-6.215 2.863a25.963 25.963 0 01-7.039.969c-.738 0-1.656-.023-2.762-.07s-2.312-.09-3.625-.137-2.668-.094-4.074-.141c-1.402-.043-2.77-.066-4.105-.066h-3.035a1.8 1.8 0 01-.172-.691 7.657 7.657 0 01-.035-.758c0-.555.066-1.012.207-1.379 1.055-.188 1.93-.383 2.621-.59.691-.207 1.266-.539 1.727-1 .277-.277.496-.875.656-1.793.16-.922.285-1.935.379-3.039.09-1.105.148-2.184.172-3.246.023-1.055.035-1.863.035-2.414l.137-20.293v-2.246c0-.895-.035-1.781-.102-2.656-.07-.875-.16-1.656-.277-2.348-.117-.688-.309-1.172-.586-1.449-.367-.367-.945-.699-1.727-1a10.022 10.022 0 00-2.555-.586c-.137-.324-.207-.781-.207-1.383 0-.551.07-1.012.207-1.379h2.07c.461 0 .945-.023 1.453-.07 1.426-.043 2.965-.102 4.625-.172 1.656-.07 3.266-.137 4.832-.207 1.562-.07 3-.125 4.312-.172a92.954 92.954 0 013.211-.07c1.977 0 3.875.129 5.691.379 1.82.254 3.418.785 4.801 1.59 1.379.805 2.484 1.945 3.312 3.414.828 1.477 1.242 3.43 1.242 5.871 0 1.473-.289 2.805-.863 4a11.453 11.453 0 01-2.242 3.176c-.922.922-2.004 1.715-3.246 2.383a22.586 22.586 0 01-3.797 1.621c3.453.414 6.168 1.656 8.145 3.73 1.981 2.07 2.969 4.855 2.969 8.351m42.863-10.113c0-2.48-.309-4.914-.93-7.305-.621-2.387-1.586-4.523-2.898-6.406a15.25 15.25 0 00-4.973-4.551c-2-1.148-4.355-1.723-7.074-1.723-1.285 0-2.598.16-3.934.484-1.336.32-2.461.734-3.383 1.238-2.349 1.93-4.142 4.539-5.384 7.82-1.241 3.285-1.862 7.02-1.862 11.199 0 2.48.309 4.918.93 7.305.621 2.391 1.578 4.527 2.867 6.41a15.149 15.149 0 004.934 4.582c2 1.172 4.359 1.758 7.074 1.758 1.289 0 2.613-.16 3.973-.484 1.355-.319 2.492-.733 3.414-1.237 2.348-1.931 4.145-4.552 5.387-7.854 1.242-3.31 1.859-7.056 1.859-11.236zm8.426-.726c0 3.73-.668 7.191-2.004 10.391s-3.164 5.973-5.488 8.315c-2.324 2.348-5.039 4.188-8.145 5.523-3.105 1.332-6.453 2-10.043 2-3.543 0-6.664-.621-9.352-1.863-2.695-1.242-4.961-2.934-6.802-5.074-1.84-2.137-3.223-4.668-4.146-7.59-.918-2.922-1.379-6.062-1.379-9.426 0-3.727.668-7.188 2-10.387 1.336-3.199 3.164-5.973 5.492-8.316 2.32-2.348 5.039-4.188 8.142-5.523 3.108-1.336 6.456-2 10.047-2 3.543 0 6.659.617 9.353 1.863 2.69 1.242 4.961 2.934 6.801 5.074 1.84 2.137 3.219 4.668 4.141 7.59.922 2.927 1.383 6.067 1.383 9.423M.95 42.036h.932v12.026H.95zm11.355 12.003l.015.024h.945V42.037h-.896v7.362c0 .594.013 1.178.039 1.736l.067 1.665-1.314-2.325-5.032-8.415-.015-.024h-.945v12.026h.892V46.61c0-.564-.012-1.134-.035-1.693l-.032-.734c-.014-.294-.027-.591-.039-.893l1.319 2.335 5.031 8.414zm6.813.023h.932V42.859h3.801v-.823h-8.534v.823h3.801zm13.6-.827h-5.883v-5.146h4.781v-.823h-4.781v-4.407h5.703v-.823h-6.631v12.026h6.811zm9.007.827h1.073l-3.299-5.549c.919-.131 1.654-.467 2.188-1 .557-.548.839-1.315.839-2.278 0-.574-.096-1.068-.286-1.47a2.651 2.651 0 00-.8-.996 3.358 3.358 0 00-1.249-.56 7.187 7.187 0 00-1.625-.173h-3.468v12.026h.932v-5.484h2.457l3.223 5.46.015.024zm-5.695-11.22h2.321c1.036 0 1.843.183 2.398.543.548.355.826.978.826 1.849 0 .873-.269 1.503-.82 1.925-.553.418-1.362.631-2.404.631H36.03v-4.948zm9.68 3.768c0-.563-.012-1.133-.035-1.693-.022-.529-.045-1.07-.071-1.625l1.318 2.333 5.031 8.414.015.024h.945V42.037h-.896v7.362c0 .564.012 1.148.035 1.736.026.56.049 1.116.071 1.671l-1.314-2.333-5.031-8.414-.015-.024h-.945v12.026h.893V46.61zm14.005-4.541l-.012-.033H58.8l-4.207 11.959-.023.066h.933l1.414-4.09h4.652l1.379 4.057.012.034h.978l-4.223-11.993zm1.586 7.096h-4.094l.735-2.161c.265-.779.483-1.424.686-2.043.212-.632.422-1.317.625-2.038.179.646.382 1.313.621 2.038l.164.488c.168.502.342 1.02.524 1.555l.739 2.161zm6.063 4.897h.932V42.859h3.801v-.823h-8.534v.823h3.801zm6.785-12.026h.932v12.026h-.932zm13.019 3.41c-.243-.754-.588-1.412-1.024-1.955a4.475 4.475 0 00-1.573-1.244 4.7 4.7 0 00-2.009-.43c-.711 0-1.382.145-1.995.43a4.486 4.486 0 00-1.577 1.244c-.435.542-.778 1.199-1.02 1.954-.243.755-.366 1.616-.366 2.558 0 .94.123 1.807.365 2.574.242.769.585 1.435 1.021 1.981.435.544.965.972 1.576 1.272a4.479 4.479 0 001.995.446c.733 0 1.409-.15 2.01-.446a4.516 4.516 0 001.572-1.272c.439-.55.784-1.216 1.025-1.981.24-.772.361-1.638.361-2.574.001-.937-.12-1.797-.361-2.557zm-4.606 7.973a3.49 3.49 0 01-1.633-.385 3.573 3.573 0 01-1.26-1.087 5.43 5.43 0 01-.805-1.704c-.19-.657-.287-1.41-.287-2.24 0-.819.097-1.564.287-2.213a5.203 5.203 0 01.804-1.675 3.576 3.576 0 011.26-1.063 3.57 3.57 0 011.633-.374c.592 0 1.138.126 1.622.374.486.249.91.607 1.26 1.064.351.458.624 1.021.812 1.675.19.649.287 1.394.287 2.213 0 .831-.097 1.584-.287 2.24-.189.66-.462 1.233-.812 1.703a3.699 3.699 0 01-1.26 1.087 3.389 3.389 0 01-1.621.385zm14.677-4.02c0 .612.013 1.18.039 1.735.012.377.028.752.044 1.126l.023.539-1.318-2.326L91 42.06l-.015-.024h-.945v12.026h.893V46.61c0-.572-.012-1.141-.035-1.693l-.032-.734c-.014-.293-.027-.59-.039-.892l1.318 2.333 5.031 8.414.015.024h.945V42.037h-.896v7.362zm4.897.573h4.652l1.383 4.057.012.034h.978l-4.222-11.993-.012-.033h-.903l-4.211 11.959-.023.066h.938l1.408-4.09zm.289-.807l.74-2.162.293-.873c.134-.4.266-.789.392-1.17.213-.646.423-1.333.623-2.043.197.712.406 1.399.623 2.043.214.651.448 1.338.688 2.043l.735 2.161h-4.094zm14.82 4.07h-5.5V42.036h-.932v12.026h6.432zM57.977 65.716c.585-.186 1.039-.512 1.35-.973.319-.474.481-1.034.481-1.665 0-1.016-.367-1.77-1.092-2.241-.717-.469-1.695-.707-2.906-.707h-3.27v12.025h3.506a7.19 7.19 0 001.841-.216 4.133 4.133 0 001.413-.66c.391-.296.697-.667.91-1.105.213-.438.321-.956.321-1.541 0-.845-.243-1.518-.721-2-.458-.465-1.074-.774-1.833-.917zm.11-.931c-.526.395-1.402.595-2.604.595h-2.012v-4.458h2.106c1.081 0 1.912.171 2.47.509.546.33.824.915.824 1.738.001.689-.256 1.218-.784 1.616zm-4.615 1.382h2.36c1.211 0 2.156.204 2.81.606.654.405.973 1.02.973 1.879 0 .931-.336 1.622-.998 2.056-.671.438-1.608.66-2.785.66h-2.36v-5.201zM63.2 60.13h.932v12.025H63.2zm13.706 5.968c0-.941-.123-1.802-.365-2.558-.239-.753-.583-1.41-1.021-1.95a4.398 4.398 0 00-1.577-1.244 4.65 4.65 0 00-2.009-.431c-.717 0-1.388.145-1.994.431a4.359 4.359 0 00-1.572 1.244c-.437.534-.781 1.19-1.025 1.951-.242.768-.365 1.628-.365 2.558 0 .931.123 1.798.365 2.577.247.778.591 1.444 1.025 1.981.441.549.97.977 1.572 1.271a4.547 4.547 0 001.995.446c.725 0 1.401-.15 2.01-.446a4.65 4.65 0 001.576-1.271c.439-.55.783-1.216 1.021-1.981.241-.768.364-1.635.364-2.578zm-4.972 5.419c-.585 0-1.135-.13-1.633-.387a3.56 3.56 0 01-1.255-1.089c-.35-.476-.614-1.032-.809-1.703-.19-.653-.287-1.407-.287-2.24 0-.82.097-1.564.287-2.209.195-.663.466-1.228.808-1.679.341-.454.763-.81 1.255-1.06a3.578 3.578 0 011.634-.377c.589 0 1.136.127 1.625.377.485.25.907.607 1.256 1.06.348.456.622 1.021.816 1.678a8 8 0 01.287 2.21 8.19 8.19 0 01-.287 2.24c-.192.66-.467 1.233-.816 1.702a3.727 3.727 0 01-1.256 1.091 3.478 3.478 0 01-1.625.386zm8.737-11.387h-.932v12.025h6.432v-.822h-5.5zm13.562 11.798a4.67 4.67 0 001.572-1.271c.437-.547.782-1.213 1.025-1.981.24-.771.361-1.639.361-2.577s-.121-1.798-.361-2.558c-.244-.756-.588-1.413-1.024-1.95a4.402 4.402 0 00-1.573-1.244 4.624 4.624 0 00-2.014-.431 4.64 4.64 0 00-1.994.431 4.402 4.402 0 00-1.573 1.244 6 6 0 00-1.025 1.95c-.24.76-.361 1.62-.361 2.558 0 .938.121 1.806.361 2.577.245.771.589 1.437 1.025 1.981.44.546.969.974 1.572 1.271a4.547 4.547 0 001.995.446c.723 0 1.401-.15 2.014-.446zm-2.014-11.156c.589 0 1.137.127 1.625.377.483.25.907.606 1.26 1.06a5.1 5.1 0 01.812 1.678c.19.66.287 1.403.287 2.21 0 .82-.097 1.573-.288 2.24a5.268 5.268 0 01-.812 1.702c-.356.472-.78.839-1.26 1.091a3.478 3.478 0 01-1.625.386c-.591 0-1.139-.13-1.629-.387a3.552 3.552 0 01-1.259-1.089c-.35-.476-.614-1.032-.809-1.703a8.201 8.201 0 01-.287-2.24c0-.808.097-1.551.287-2.209.195-.663.466-1.228.808-1.679a3.549 3.549 0 012.89-1.437zm15.778 10.233l.013-.015v-4.797h-3.751V67h2.855v3.641c-.275.273-.65.488-1.114.641a4.862 4.862 0 01-1.512.235c-.658 0-1.263-.13-1.798-.386a3.77 3.77 0 01-1.337-1.079 5.037 5.037 0 01-.835-1.694 8.227 8.227 0 01-.287-2.24c0-.828.103-1.578.307-2.228.21-.673.495-1.222.87-1.678a3.886 3.886 0 011.365-1.061c.537-.251 1.151-.378 1.827-.378.637 0 1.177.12 1.604.356a4.5 4.5 0 011.109.862l.038.041.524-.604.03-.034-.031-.033a4.875 4.875 0 00-1.284-.98 4.091 4.091 0 00-.901-.336 4.478 4.478 0 00-1.11-.13c-.792 0-1.523.145-2.172.43a4.534 4.534 0 00-1.682 1.243c-.46.535-.824 1.194-1.08 1.962-.253.768-.381 1.631-.381 2.567 0 .962.125 1.835.374 2.594.246.766.599 1.43 1.048 1.974a4.653 4.653 0 001.63 1.251c.629.291 1.342.438 2.119.438.797 0 1.481-.124 2.092-.381.599-.256 1.094-.589 1.47-.988zm8.62-10.876l-1.823 3.759a24.64 24.64 0 01-.616 1.282c-.138.271-.28.542-.424.817l-.23.44h-.015c-.237-.43-.448-.841-.644-1.257l-.153-.324-.452-.96-1.812-3.73-.014-.028h-.995l3.593 7.16v4.866h.932v-4.866l3.581-7.087.037-.072h-.965zM18.844 79.688a4.442 4.442 0 00-1.577-1.248 4.717 4.717 0 00-2.009-.427c-.712 0-1.383.144-1.994.427a4.455 4.455 0 00-1.573 1.248c-.438.541-.783 1.197-1.025 1.95-.24.761-.361 1.621-.361 2.558 0 .935.121 1.802.361 2.577.243.766.588 1.431 1.025 1.978.435.544.963.972 1.572 1.271a4.49 4.49 0 001.995.45c.729 0 1.405-.151 2.01-.45a4.602 4.602 0 001.576-1.271c.439-.55.784-1.215 1.024-1.978.24-.773.361-1.641.361-2.577 0-.938-.122-1.798-.362-2.559-.242-.754-.586-1.41-1.023-1.949zm-3.586 9.922c-.595 0-1.145-.13-1.633-.386a3.568 3.568 0 01-1.256-1.087c-.342-.466-.614-1.039-.808-1.703a8.24 8.24 0 01-.287-2.241c0-.808.097-1.552.287-2.213.196-.667.46-1.215.808-1.675a3.56 3.56 0 011.255-1.062 3.609 3.609 0 011.633-.375c.586 0 1.133.126 1.625.374a3.76 3.76 0 011.256 1.063 5.05 5.05 0 01.815 1.675c.19.649.287 1.394.287 2.213 0 .843-.094 1.575-.287 2.241a5.255 5.255 0 01-.816 1.702 3.727 3.727 0 01-1.256 1.089 3.435 3.435 0 01-1.623.385zm8.737-11.382h-.932v12.025h6.432v-.822h-5.5zm10.072 3.758c-.173.393-.373.811-.611 1.279-.186.362-.39.751-.658 1.258h-.011a19.997 19.997 0 01-.644-1.257l-.468-.983-1.951-4.027-.014-.028h-1l3.597 7.155v4.87h.933v-4.87l3.577-7.083.037-.072h-.964l-1.823 3.758zm10.261 3.279c-.172.477-.321.906-.454 1.312-.162.497-.303.909-.44 1.293l-.457-1.295c-.13-.355-.257-.709-.383-1.061l-2.586-7.254-.012-.033h-1.261v12.025h.877v-7.886c0-.434-.012-.928-.039-1.604-.021-.529-.043-1.035-.065-1.508l.913 2.566 2.598 7.13h.793l2.583-7.131.894-2.575-.019.409c-.017.354-.035.726-.05 1.108a39.479 39.479 0 00-.035 1.604v7.886h.916V78.228h-1.284l-2.489 7.037zm13.638-6.286c-.366-.265-.828-.46-1.374-.579a8.946 8.946 0 00-1.83-.173h-3.054v11.976h.05v.049h.882v-5.121h2.196c1.346 0 2.409-.292 3.159-.868.76-.582 1.145-1.475 1.145-2.653 0-.62-.103-1.151-.305-1.581a2.717 2.717 0 00-.869-1.05zm-5.326.055h1.923c1.214 0 2.134.186 2.736.553.59.365.89 1.046.89 2.022 0 .954-.293 1.651-.871 2.073-.575.426-1.478.643-2.681.643H52.64v-5.291zm9.201-.806h.932v12.025h-.932zm8.045 0h-.898l-4.211 11.959-.023.066h.937l1.41-4.09h4.652l1.383 4.057.012.033h.973l-4.222-11.992-.013-.033zm1.598 7.129H67.39l.74-2.158c.14-.421.278-.83.412-1.229l.275-.818c.214-.65.423-1.336.621-2.038.198.702.406 1.388.621 2.038l.064.192c.199.595.404 1.21.626 1.855l.735 2.158zm11.565-5.499a4.44 4.44 0 00-1.71-1.209c-.689-.28-1.502-.422-2.417-.422h-2.82v11.976h.05v.049h2.784c.922 0 1.733-.145 2.41-.431a4.46 4.46 0 001.703-1.225 5.158 5.158 0 001.001-1.919c.219-.742.33-1.578.33-2.484 0-.905-.111-1.731-.33-2.455a5.032 5.032 0 00-1.001-1.88zm-6.015-.824h1.798c.801 0 1.496.126 2.066.375a3.718 3.718 0 011.422 1.052c.373.461.649 1.01.823 1.63.18.642.271 1.35.271 2.103 0 .771-.091 1.487-.271 2.132a4.703 4.703 0 01-.823 1.659c-.374.468-.839.82-1.422 1.079-.573.254-1.268.383-2.066.383h-1.798V79.034zm17.034 2.216c-.496 0-.961.104-1.423.321a3.795 3.795 0 00-1.227.916 4.407 4.407 0 00-.862 1.455c-.212.567-.319 1.219-.319 1.936 0 .715.107 1.362.319 1.924.211.565.504 1.053.869 1.45.371.399.792.696 1.291.907a4.088 4.088 0 001.585.312c.657 0 1.182-.091 1.606-.279.427-.186.804-.375 1.153-.581l.041-.024-.374-.705-.046.034a4.18 4.18 0 01-1.05.559 3.57 3.57 0 01-1.255.208c-.485 0-.929-.093-1.319-.275a2.975 2.975 0 01-1.006-.765 3.574 3.574 0 01-.651-1.178 5.041 5.041 0 01-.25-1.447h6.251l.008-.039c.028-.132.04-.234.04-.334v-.328c0-1.281-.302-2.291-.898-3.001-.599-.708-1.435-1.066-2.483-1.066zm2.519 4.017h-5.434c.052-.499.159-.932.327-1.321.174-.406.396-.755.658-1.036a2.78 2.78 0 01.898-.648 2.52 2.52 0 011.049-.223c.763 0 1.376.271 1.825.803.443.53.67 1.346.677 2.425zm3.686 3.457c-.216 0-.411.078-.577.231s-.25.372-.25.65c0 .267.084.48.25.635a.833.833 0 00.577.231.805.805 0 00.57-.232c.158-.153.238-.367.238-.634 0-.276-.08-.495-.238-.649a.805.805 0 00-.57-.232zm10.992-3.493c-.123.406-.225.734-.32 1.031-.076.241-.149.482-.223.724l-.123.402-.249.812c-.095.301-.201.625-.324.992h-.002a67.47 67.47 0 01-.629-1.961c-.209-.681-.414-1.335-.625-2l-2.207-6.969-.011-.035h-.993l3.967 11.991.011.034h.96l3.917-11.96.021-.065h-.954l-2.216 7.004zm4.317 3.493a.83.83 0 00-.577.231c-.166.152-.25.371-.25.65 0 .268.084.481.25.635a.83.83 0 00.577.231.785.785 0 00.565-.232c.161-.151.243-.365.243-.634 0-.278-.082-.497-.242-.649a.79.79 0 00-.566-.232z"/></g></svg>